<?xml version="1.0" encoding="UTF-8"?>
<svg version="1.1" xmlns="http://www.w3.org/2000/svg" width="200" height="150">
<path d="M0 0 C66 0 132 0 200 0 C200 49.5 200 99 200 150 C134 150 68 150 0 150 C0 100.5 0 51 0 0 Z " fill="#FEFEFE" transform="translate(0,0)"/>
<path d="M0 0 C0.66 0.33 1.32 0.66 2 1 C-1.63 9.25 -5.26 17.5 -9 26 C-4.05 26.33 0.9 26.66 6 27 C6.66 26.01 7.32 25.02 8 24 C8.66 24 9.32 24 10 24 C8.14506608 29.71937959 6.06896109 35.35555275 4 41 C8.16971763 39.61009412 9.63059156 36.61639302 12 33.125 C12.87235674 31.85495121 13.74728038 30.58666099 14.625 29.3203125 C15.00914062 28.75586426 15.39328125 28.19141602 15.7890625 27.60986328 C17.08981774 25.88059311 18.34272146 24.3961931 20 23 C24.42105263 23.42105263 24.42105263 23.42105263 26 25 C26.42564759 30.72120437 25.82264831 36.34429288 25 42 C29.29 39.03 33.58 36.06 38 33 C38.66 33.33 39.32 33.66 40 34 C39.26680542 34.57331055 39.26680542 34.57331055 38.51879883 35.15820312 C36.27302842 36.92609912 34.04290187 38.71276056 31.8125 40.5 C31.04357422 41.10070312 30.27464844 41.70140625 29.48242188 42.3203125 C24.44103538 46.38804066 21.08549754 50.32388423 18 56 C10.73611127 67.94543169 2.77831078 79.14779282 -9 87 C-12.1875 87.125 -12.1875 87.125 -15 87 C-14.77614205 76.47867647 -5.55804291 69.25059406 1.5 62.3125 C2.22058594 61.59255859 2.94117188 60.87261719 3.68359375 60.13085938 C7.50749983 56.33807007 11.38232623 52.72632633 15.59057617 49.36206055 C21.30552961 43.83915647 21.12211645 33.35356577 22 26 C17.60612738 30.2391588 13.96680135 34.81836723 10.28125 39.671875 C7.78193404 42.22254677 6.52589193 42.83095039 3 43 C2 42 2 42 1.75 38.8125 C2 35 2 35 5 29 C-0.28 29.66 -5.56 30.32 -11 31 C-11.99 33.475 -11.99 33.475 -13 36 C-12.34 36.66 -11.68 37.32 -11 38 C-8.78426298 49.15711828 -13.95339941 60.46880492 -19.73046875 69.79296875 C-21.66283386 72.41239701 -23.70034954 74.70034954 -26 77 C-28.5625 77.1875 -28.5625 77.1875 -31 77 C-32.52545693 75.47454307 -32.19210916 74.10761962 -32.2265625 71.984375 C-32.16580911 67.02611418 -31.03980128 62.88875568 -29.375 58.25 C-29.10864746 57.47865723 -28.84229492 56.70731445 -28.56787109 55.91259766 C-26.14708339 49.06433531 -23.23979026 42.50255775 -20 36 C-21.010625 36.66 -22.02125 37.32 -23.0625 38 C-26.80052951 40.14252911 -29.66582754 40.50990264 -34 40 C-34.66 39.34 -35.32 38.68 -36 38 C-35.78597179 31.79318184 -34.06078176 27.35280904 -31 22 C-29.68 22 -28.36 22 -27 22 C-27.309375 23.175625 -27.61875 24.35125 -27.9375 25.5625 C-28.8930401 29.36432975 -29.51401158 33.11209261 -30 37 C-25.00712984 35.33541195 -25.00712984 35.33541195 -21.6875 31.625 C-20 29 -20 29 -17.59838867 27.67797852 C-14.45098723 25.64546042 -13.45135092 23.8369496 -11.73828125 20.52734375 C-10.89620117 18.93116211 -10.89620117 18.93116211 -10.03710938 17.30273438 C-9.46798828 16.19220703 -8.89886719 15.08167969 -8.3125 13.9375 C-7.16567212 11.73676148 -6.01606732 9.53746713 -4.86328125 7.33984375 C-4.10978394 5.87599243 -4.10978394 5.87599243 -3.34106445 4.38256836 C-2 2 -2 2 0 0 Z " fill="#F49C9C" transform="translate(156,43)"/>
<path d="M0 0 C0.99 0 1.98 0 3 0 C2.34 3.3 1.68 6.6 1 10 C7.27 10 13.54 10 20 10 C20 10.33 20 10.66 20 11 C18.72382813 11.13277344 17.44765625 11.26554687 16.1328125 11.40234375 C14.46352004 11.58052665 12.79425036 11.75892314 11.125 11.9375 C9.86236328 12.06801758 9.86236328 12.06801758 8.57421875 12.20117188 C7.36572266 12.33168945 7.36572266 12.33168945 6.1328125 12.46484375 C5.38918457 12.543396 4.64555664 12.62194824 3.87939453 12.70288086 C1.91553684 12.91637347 1.91553684 12.91637347 0 14 C-0.74950339 15.93918303 -0.74950339 15.93918303 -1.2890625 18.296875 C-1.50820312 19.1734375 -1.72734375 20.05 -1.953125 20.953125 C-2.17484375 21.87609375 -2.3965625 22.7990625 -2.625 23.75 C-2.85445313 24.6575 -3.08390625 25.565 -3.3203125 26.5 C-4.5964627 31.52824201 -4.5964627 31.52824201 -4.93896484 36.67675781 C-5 39 -5 39 -7 41 C-7.70558609 43.0684159 -7.70558609 43.0684159 -8.21875 45.47265625 C-8.42886719 46.37306641 -8.63898438 47.27347656 -8.85546875 48.20117188 C-9.17451172 49.6175293 -9.17451172 49.6175293 -9.5 51.0625 C-9.81904297 52.43825195 -9.81904297 52.43825195 -10.14453125 53.84179688 C-11.46416373 59.55345768 -12.7345385 65.27613014 -14 71 C-14.66 71 -15.32 71 -16 71 C-16.41467342 62.98298054 -14.85939879 55.78069851 -13 48 C-14.29549899 49.09966775 -15.58626071 50.20491801 -16.875 51.3125 C-17.59429687 51.92738281 -18.31359375 52.54226562 -19.0546875 53.17578125 C-21.80693781 55.75670674 -22.92677432 57.69583178 -23.8125 61.375 C-25.18154446 65.55418837 -26.49369251 67.37026939 -30 70 C-33.3125 70.3125 -33.3125 70.3125 -36 70 C-36.375 67.9375 -36.375 67.9375 -36 65 C-34.59375 63.3203125 -34.59375 63.3203125 -32.875 61.5625 C-31.19639196 59.83807942 -31.19639196 59.83807942 -30 58 C-30.42073819 54.82108283 -30.42073819 54.82108283 -32 52 C-32.36537945 50.34006423 -32.70413952 48.67372503 -33 47 C-35.22938605 48.74972112 -37.45851504 50.49976805 -39.6875 52.25 C-40.62625977 52.98669922 -40.62625977 52.98669922 -41.58398438 53.73828125 C-42.82287759 54.71123403 -44.05883253 55.68794041 -45.29174805 56.66845703 C-46.72340431 57.78440005 -48.20083246 58.84128088 -49.6875 59.8828125 C-52.79551667 62.72832777 -54.39562828 65.91255014 -56.3125 69.625 C-62.09725301 80.31733455 -71.17967055 95.41962234 -83 100 C-85.75 100.125 -85.75 100.125 -88 100 C-89.01135823 97.4027842 -89.1289582 96.31570681 -88.05859375 93.6953125 C-80.56447046 81.81306401 -70.16222194 72.3207723 -59.109375 63.76953125 C-54.98266127 60.30767695 -53.80222129 56.14758664 -53 51 C-52.84529943 47.32586136 -52.87841111 43.67468648 -53 40 C-53.42410156 40.4846875 -53.84820312 40.969375 -54.28515625 41.46875 C-58.5234375 46.3125 -62.76171875 51.15625 -67 56 C-68.65 55.67 -70.3 55.34 -72 55 C-71.61330541 48.03949747 -69.36561591 43.0605925 -66 37 C-64.515 37.495 -64.515 37.495 -63 38 C-63.3609375 38.73605469 -63.721875 39.47210938 -64.09375 40.23046875 C-64.5578125 41.20628906 -65.021875 42.18210938 -65.5 43.1875 C-66.19609375 44.63189453 -66.19609375 44.63189453 -66.90625 46.10546875 C-67.99592921 48.98922693 -68.22277524 50.95354861 -68 54 C-66.95737583 52.66741527 -65.91596693 51.33387971 -64.875 50 C-64.23433594 49.1853125 -63.59367187 48.370625 -62.93359375 47.53125 C-61.71647764 45.93793437 -60.53569626 44.31552274 -59.41015625 42.65625 C-55.70057338 37.22471222 -55.70057338 37.22471222 -51.6875 35.9375 C-49 36 -49 36 -48 37 C-47.87330358 39.05955348 -47.82415771 41.12408618 -47.8125 43.1875 C-47.79832031 44.31542969 -47.78414062 45.44335938 -47.76953125 46.60546875 C-48.00401519 50.05913901 -48.76412878 52.78087298 -50 56 C-49.01257813 55.278125 -48.02515625 54.55625 -47.0078125 53.8125 C-45.71372097 52.87475251 -44.41944031 51.93726598 -43.125 51 C-42.47402344 50.52304688 -41.82304688 50.04609375 -41.15234375 49.5546875 C-36.2265625 46 -36.2265625 46 -34 46 C-34.12375 45.154375 -34.2475 44.30875 -34.375 43.4375 C-33.85572929 38.67751854 -31.5192198 36.13178275 -28 33 C-24.54718998 30.93640651 -22.0146511 30.81751586 -18 31 C-17.01 32.98 -17.01 32.98 -16 35 C-17.32 35.99 -18.64 36.98 -20 38 C-20 36.68 -20 35.36 -20 34 C-23.28190632 35.38569378 -25.5954745 36.53022845 -27.9375 39.25 C-29.73584479 43.90453946 -28.30740429 48.33069898 -27 53 C-24.88669766 51.75369349 -22.96850801 50.45830287 -21 49 C-20.26523438 48.45988281 -19.53046875 47.91976562 -18.7734375 47.36328125 C-11.30945404 41.0101582 -9.53977279 33.64457816 -7.54321289 24.41772461 C-6.75961904 20.93011569 -5.86695666 17.46782662 -5 14 C-13.415 14.495 -13.415 14.495 -22 15 C-18.40158363 11.40158363 -16.09917403 11.46892726 -11.3125 11.3125 C-10.61060547 11.27833984 -9.90871094 11.24417969 -9.18554688 11.20898438 C-7.45758613 11.12670053 -5.72881928 11.0616676 -4 11 C-3.79503906 10.37351562 -3.59007813 9.74703125 -3.37890625 9.1015625 C-3.10949219 8.28429688 -2.84007813 7.46703125 -2.5625 6.625 C-2.29566406 5.81289063 -2.02882813 5.00078125 -1.75390625 4.1640625 C-1 2 -1 2 0 0 Z " fill="#F49C9C" transform="translate(121,30)"/>
<path d="M0 0 C0.05451714 2.04136395 0.09302485 4.08315856 0.125 6.125 C0.14820313 7.26195313 0.17140625 8.39890625 0.1953125 9.5703125 C-0.00327891 13.05757767 -0.7475199 15.7553862 -2 19 C-1.05125 18.34 -0.1025 17.68 0.875 17 C4 15 4 15 6 15 C4.81139128 18.56582617 4.06821665 18.74323077 1 20.6875 C-3.60154738 24.11496002 -5.92723631 27.84372037 -8.5625 32.8125 C-14.2342466 43.50461613 -23.22076199 58.43554527 -35 63 C-37.75 63.125 -37.75 63.125 -40 63 C-41.01135823 60.4027842 -41.1289582 59.31570681 -40.05859375 56.6953125 C-32.56447046 44.81306401 -22.16222194 35.3207723 -11.109375 26.76953125 C-6.98266127 23.30767695 -5.80222129 19.14758664 -5 14 C-4.84529943 10.32586136 -4.87841111 6.67468648 -5 3 C-5.63615234 3.72703125 -5.63615234 3.72703125 -6.28515625 4.46875 C-10.5234375 9.3125 -14.76171875 14.15625 -19 19 C-20.65 18.67 -22.3 18.34 -24 18 C-23.61330541 11.03949747 -21.36561591 6.0605925 -18 0 C-17.01 0.33 -16.02 0.66 -15 1 C-15.3609375 1.73605469 -15.721875 2.47210938 -16.09375 3.23046875 C-16.78984375 4.69419922 -16.78984375 4.69419922 -17.5 6.1875 C-18.19609375 7.63189453 -18.19609375 7.63189453 -18.90625 9.10546875 C-19.99592921 11.98922693 -20.22277524 13.95354861 -20 17 C-16.00840174 11.89831228 -12.06147553 6.77803745 -8.26171875 1.53125 C-5.656358 -1.63067388 -3.69235384 -0.87450486 0 0 Z " fill="#F49A9A" transform="translate(73,67)"/>
<path d="M0 0 C0.99 0 1.98 0 3 0 C2.05098489 4.11299773 0.42880391 7.85796074 -1.24609375 11.71875 C-1.92169647 13.29455661 -2.5968065 14.87057454 -3.27148438 16.44677734 C-3.62557373 17.27216003 -3.97966309 18.09754272 -4.34448242 18.94793701 C-11.54778048 35.76676109 -18.14712342 52.66085314 -24 70 C-23.39115967 69.68772461 -22.78231934 69.37544922 -22.1550293 69.05371094 C-19.33585013 67.6125186 -16.5117433 66.18124128 -13.6875 64.75 C-12.25180664 64.01330078 -12.25180664 64.01330078 -10.78710938 63.26171875 C6.44773498 54.55725191 6.44773498 54.55725191 11.3137207 55.40136719 C12.14842896 55.69769043 12.14842896 55.69769043 13 56 C10.80632644 58.19367356 9.00933397 59.03820273 6.1953125 60.3203125 C5.22464844 60.76971191 4.25398438 61.21911133 3.25390625 61.68212891 C2.22136719 62.15827637 1.18882813 62.63442383 0.125 63.125 C-7.59558981 66.72706926 -14.71926543 70.3475626 -21.5 75.5390625 C-24.63864977 77.37321096 -27.41026923 77.67446069 -31 78 C-30.125 74.125 -30.125 74.125 -29 73 C-28.60057303 71.06738795 -28.23199862 69.12839753 -27.875 67.1875 C-23.61228978 47.05126885 -14.81490677 14.81490677 0 0 Z " fill="#F49B9B" transform="translate(35,19)"/>
<path d="M0 0 C5.61 0 11.22 0 17 0 C17.495 0.99 17.495 0.99 18 2 C17.67 2.66 17.34 3.32 17 4 C14.77514648 4.41064453 14.77514648 4.41064453 11.87109375 4.6328125 C10.83662109 4.71660156 9.80214844 4.80039062 8.73632812 4.88671875 C7.64771484 4.96535156 6.55910156 5.04398438 5.4375 5.125 C3.7987793 5.25455078 3.7987793 5.25455078 2.12695312 5.38671875 C-0.58149081 5.59960954 -3.29031607 5.80363237 -6 6 C-9.24970831 17.93154347 -9.24970831 17.93154347 -10.7265625 30.1796875 C-11 32 -11 32 -13 34 C-13.70380053 35.95376011 -13.70380053 35.95376011 -14.21875 38.21875 C-14.42886719 39.06953125 -14.63898438 39.9203125 -14.85546875 40.796875 C-15.06816406 41.68890625 -15.28085938 42.5809375 -15.5 43.5 C-15.71269531 44.36109375 -15.92539063 45.2221875 -16.14453125 46.109375 C-17.59234042 52.0427279 -18.84694087 58.0028042 -20 64 C-21.32 63.34 -22.64 62.68 -24 62 C-23.34 62 -22.68 62 -22 62 C-21.88527344 60.73800781 -21.77054687 59.47601563 -21.65234375 58.17578125 C-21.04621803 52.73556324 -19.85577978 47.50012744 -18.5625 42.1875 C-18.34529297 41.26001953 -18.12808594 40.33253906 -17.90429688 39.37695312 C-16.92384973 35.29322882 -15.90998537 31.74669765 -14 28 C-13.63018605 26.15640896 -13.32286136 24.2997036 -13.0625 22.4375 C-11.16845707 10.37777353 -11.16845707 10.37777353 -9 5 C-5.96474514 2.97649676 -4.80573798 2.67875982 -1.3125 2.375 C-0.50425781 2.30023438 0.30398437 2.22546875 1.13671875 2.1484375 C1.75160156 2.09945312 2.36648437 2.05046875 3 2 C2.01 1.34 1.02 0.68 0 0 Z " fill="#FCE5E5" transform="translate(129,39)"/>
<path d="M0 0 C-0.83158253 4.69334934 -3.73897254 6.65204218 -7.3125 9.5 C-13.37944843 14.43149518 -18.06375842 18.69072749 -21.8125 25.6875 C-25.07394692 31.57319599 -28.64606868 36.85083008 -33 42 C-33.56460938 42.70898438 -34.12921875 43.41796875 -34.7109375 44.1484375 C-39.04273191 49.42107414 -43.91755851 54.57474568 -51 55.3125 C-51.99 55.1578125 -51.99 55.1578125 -53 55 C-53.33 54.34 -53.66 53.68 -54 53 C-52.9275 52.7525 -51.855 52.505 -50.75 52.25 C-38.36321622 47.52288817 -28.59042499 32.24153451 -22.91040039 20.80639648 C-19.75719365 14.53938974 -15.81190713 10.72414559 -10.3125 6.4375 C-9.54099609 5.81037109 -8.76949219 5.18324219 -7.97460938 4.53710938 C-2.30940737 0 -2.30940737 0 0 0 Z " fill="#FCE8E8" transform="translate(88,77)"/>
<path d="M0 0 C0.66 0.33 1.32 0.66 2 1 C1.3503125 1.5878125 1.3503125 1.5878125 0.6875 2.1875 C-1.10123731 3.96722996 -1.10123731 3.96722996 -2.31640625 6.33203125 C-4.13768998 9.2181955 -6.12593939 11.18341048 -8.625 13.5 C-14.36755552 19.0905467 -18.66020267 25.31209977 -23 32 C-15.78785295 28.02809293 -11.09044917 22.96599612 -6.06640625 16.609375 C-4 14 -4 14 -2 12 C-1.67 12.66 -1.34 13.32 -1 14 C-14.09042658 31.94515431 -14.09042658 31.94515431 -22 35 C-24.75 35.125 -24.75 35.125 -27 35 C-28.01135823 32.4027842 -28.1289582 31.31570681 -27.05859375 28.6953125 C-19.95278574 17.42875426 -10.15084455 8.50981706 0 0 Z " fill="#F49D9D" transform="translate(60,95)"/>
<path d="M0 0 C0.495 0.99 0.495 0.99 1 2 C0.14277344 2.65226562 -0.71445313 3.30453125 -1.59765625 3.9765625 C-3.96799188 5.78309389 -6.32491849 7.60571693 -8.67578125 9.4375 C-10.46110844 10.82724594 -12.23611514 12.16120662 -14.10546875 13.4375 C-19.20990267 17.12336202 -21.60856644 22.39379819 -24.52001953 27.82250977 C-29.85556576 37.65561161 -38.4048579 50.26006801 -49 55 C-51.8125 55.1875 -51.8125 55.1875 -54 55 C-54.33 54.34 -54.66 53.68 -55 53 C-54.05125 52.690625 -53.1025 52.38125 -52.125 52.0625 C-41.14974211 47.2954688 -33.58593433 36.34751913 -27.85546875 26.28125 C-23.18629866 18.08190746 -18.65617013 11.80092071 -11 6 C-10.40960938 5.55140625 -9.81921875 5.1028125 -9.2109375 4.640625 C-6.31857796 2.5937244 -3.33416881 1.17676546 0 0 Z " fill="#FCE9E9" transform="translate(198,77)"/>
<path d="M0 0 C0.66 0 1.32 0 2 0 C-0.51638031 8.21579393 -3.88765504 16.02721696 -7.23922729 23.92712402 C-12.97547058 37.46438801 -18.47950841 50.99878869 -23 65 C-22.34 65.33 -21.68 65.66 -21 66 C-23.97 66.99 -23.97 66.99 -27 68 C-22.94226459 50.42338081 -15.57508851 33.63189763 -8.5625 17.0625 C-8.25195679 16.32532745 -7.94141357 15.58815491 -7.62145996 14.8286438 C-6.73427052 12.72812339 -5.83950457 10.63103232 -4.94140625 8.53515625 C-4.42263916 7.322229 -3.90387207 6.10930176 -3.36938477 4.85961914 C-2 2 -2 2 0 0 Z " fill="#FCE3E3" transform="translate(38,21)"/>
<path d="M0 0 C0.99 0.33 1.98 0.66 3 1 C3.46050533 7.78269721 2.02851958 12.50940879 -0.6875 18.6875 C-1.02716797 19.51572266 -1.36683594 20.34394531 -1.71679688 21.19726562 C-3.82687786 26.12341731 -5.92848491 29.49892486 -10 33 C-10.44051488 26.81616841 -8.93442553 22.22355679 -6.6875 16.5 C-6.37876953 15.68402344 -6.07003906 14.86804688 -5.75195312 14.02734375 C-3.94953099 9.2993059 -2.02537717 4.63655573 0 0 Z " fill="#FBE0E0" transform="translate(139,83)"/>
<path d="M0 0 C0.33 0.66 0.66 1.32 1 2 C-4.4152513 12.90624039 -12.93085294 22.25065347 -23 29 C-23.33 28.34 -23.66 27.68 -24 27 C-17.17006094 17.05842681 -9.65499207 7.35866964 0 0 Z " fill="#FCE3E3" transform="translate(169,99)"/>
<path d="M0 0 C1 3 1 3 -0.1171875 5.34765625 C-5.66995306 13.92359417 -11.79096645 23.05856736 -21 28 C-21.66 28 -22.32 28 -23 28 C-19.11996985 16.81991313 -8.32779935 8.07416079 0 0 Z " fill="#FCE5E5" transform="translate(60,99)"/>
<path d="M0 0 C0.57564697 0.36077637 1.15129395 0.72155273 1.74438477 1.09326172 C1.06037598 1.409646 0.37636719 1.72603027 -0.32836914 2.05200195 C-18.05569843 10.23828321 -18.05569843 10.23828321 -34.58374023 20.54638672 C-37.46018434 22.21169646 -38.99380738 22.45039397 -42.25561523 22.09326172 C-42.25561523 21.43326172 -42.25561523 20.77326172 -42.25561523 20.09326172 C-41.20374023 19.59826172 -40.15186523 19.10326172 -39.06811523 18.59326172 C-35.36243524 16.7533335 -31.92572184 14.63694575 -28.44311523 12.40576172 C-22.84292247 8.92864673 -17.11463095 5.86393869 -11.19311523 2.96826172 C-10.37157959 2.55358643 -9.55004395 2.13891113 -8.70361328 1.71166992 C-7.92542236 1.34001709 -7.14723145 0.96836426 -6.34545898 0.58544922 C-5.65315186 0.24884277 -4.96084473 -0.08776367 -4.24755859 -0.43457031 C-2.25561523 -0.90673828 -2.25561523 -0.90673828 0 0 Z " fill="#FCE6E6" transform="translate(48.255615234375,76.90673828125)"/>
<path d="M0 0 C0.66 0.33 1.32 0.66 2 1 C3.33987447 14.3243072 -1.92264036 26.06578067 -9.1875 37.01171875 C-11.14033763 39.15394796 -12.10896237 39.75979774 -14.9375 40.1875 C-15.948125 40.125625 -16.95875 40.06375 -18 40 C-18.33 39.34 -18.66 38.68 -19 38 C-18.2575 37.773125 -17.515 37.54625 -16.75 37.3125 C-9.81885854 34.00445521 -7.07501371 25.59918673 -4 19 C-3.66484375 18.28328125 -3.3296875 17.5665625 -2.984375 16.828125 C-0.68755579 11.37880882 -0.31261989 5.86431792 0 0 Z " fill="#FCE4E4" transform="translate(145,82)"/>
<path d="M0 0 C0.99 0.33 1.98 0.66 3 1 C2.6390625 1.73605469 2.278125 2.47210938 1.90625 3.23046875 C1.4421875 4.20628906 0.978125 5.18210937 0.5 6.1875 C0.0359375 7.15042969 -0.428125 8.11335938 -0.90625 9.10546875 C-1.99592921 11.98922693 -2.22277524 13.95354861 -2 17 C2.39719064 11.37992202 6.74093983 5.72554976 11 0 C12.32 0.33 13.64 0.66 15 1 C15 3.31 15 5.62 15 8 C14.67 8 14.34 8 14 8 C13.67 6.35 13.34 4.7 13 3 C12.57589844 3.4846875 12.15179688 3.969375 11.71484375 4.46875 C7.4765625 9.3125 3.23828125 14.15625 -1 19 C-2.65 18.67 -4.3 18.34 -6 18 C-5.61330541 11.03949747 -3.36561591 6.0605925 0 0 Z " fill="#F5A3A3" transform="translate(55,67)"/>
<path d="M0 0 C0.66 0 1.32 0 2 0 C2.2421875 2.29296875 2.2421875 2.29296875 2 5 C0.3203125 6.73828125 0.3203125 6.73828125 -1.875 8.3125 C-4.96450243 10.79059477 -6.46484174 12.26032685 -7.1875 16.1875 C-8 20 -8 20 -10.25 22.5 C-13.43210172 24.23569185 -15.42807363 24.33227222 -19 24 C-19.33 23.34 -19.66 22.68 -20 22 C-19.0925 21.7525 -18.185 21.505 -17.25 21.25 C-13.75067048 19.90410403 -12.24738236 18.96975527 -10 16 C-9.731875 14.9275 -9.46375 13.855 -9.1875 12.75 C-7.4779044 7.35127704 -3.94548466 3.94548466 0 0 Z " fill="#FCE3E3" transform="translate(106,78)"/>
<path d="M0 0 C0.99 0 1.98 0 3 0 C2.33673121 5.1692853 0.08075343 9.62251365 -2.0625 14.3125 C-2.62807617 15.56643555 -2.62807617 15.56643555 -3.20507812 16.84570312 C-4.1320978 18.89922771 -5.06542765 20.94990166 -6 23 C-2.7 23 0.6 23 4 23 C4 23.33 4 23.66 4 24 C-0.62 24 -5.24 24 -10 24 C-6.82084804 15.92984501 -3.44136163 7.96101657 0 0 Z " fill="#FCE3E3" transform="translate(156,46)"/>
<path d="M0 0 C0.66 0 1.32 0 2 0 C2 2.64 2 5.28 2 8 C1.34 7.34 0.68 6.68 0 6 C-0.66386719 6.85464844 -1.32773438 7.70929688 -2.01171875 8.58984375 C-2.90297771 9.70626287 -3.79494208 10.82211911 -4.6875 11.9375 C-5.12255859 12.50146484 -5.55761719 13.06542969 -6.00585938 13.64648438 C-8.14372682 16.29110558 -9.54110169 17.85758328 -12.83203125 18.87890625 C-13.54746094 18.91886719 -14.26289063 18.95882812 -15 19 C-15.33 18.34 -15.66 17.68 -16 17 C-15.10925781 16.46761719 -14.21851563 15.93523437 -13.30078125 15.38671875 C-9.81338283 13.06144487 -7.62834538 10.226357 -5.1875 6.8125 C-4.03314453 5.21341797 -4.03314453 5.21341797 -2.85546875 3.58203125 C-2.24316406 2.72996094 -1.63085938 1.87789063 -1 1 C-0.67 0.67 -0.34 0.34 0 0 Z " fill="#FDECEC" transform="translate(176,69)"/>
<path d="M0 0 C0.33 0.99 0.66 1.98 1 3 C2.32 2.01 3.64 1.02 5 0 C5 4 5 4 4 6 C2.35 5.67 0.7 5.34 -1 5 C-1 4.34 -1 3.68 -1 3 C-3.28804937 4.65883579 -4.56463437 5.62283307 -6 8 C-6.44207004 11.70298665 -6.29251428 15.28831877 -6 19 C-8.96414064 15.32093113 -9.91700323 12.81381263 -10 8 C-7.5993265 3.45586802 -5.50143085 0 0 0 Z " fill="#FCE2E2" transform="translate(101,64)"/>
<path d="M0 0 C5.61 0 11.22 0 17 0 C17.33 0.66 17.66 1.32 18 2 C17.67 2.66 17.34 3.32 17 4 C13.91772291 4.22655901 10.8342984 4.42803465 7.75 4.625 C6.87730469 4.68945312 6.00460938 4.75390625 5.10546875 4.8203125 C4.26113281 4.871875 3.41679687 4.9234375 2.546875 4.9765625 C1.77182617 5.02893066 0.99677734 5.08129883 0.19824219 5.13525391 C-2 5 -2 5 -6 3 C-1.545 2.505 -1.545 2.505 3 2 C2.01 1.34 1.02 0.68 0 0 Z " fill="#FBDBDB" transform="translate(129,39)"/>
<path d="M0 0 C0.33 0 0.66 0 1 0 C0.7095387 8.4233777 -2.15233403 15.57002434 -6 23 C-6.66 23.33 -7.32 23.66 -8 24 C-6.5102402 15.50836915 -3.31428738 7.9105161 0 0 Z " fill="#FEF8F8" transform="translate(140,88)"/>
<path d="M0 0 C0.765625 1.65234375 0.765625 1.65234375 1 4 C-0.765625 6.69140625 -0.765625 6.69140625 -3.25 9.5625 C-4.05953125 10.51253906 -4.8690625 11.46257812 -5.703125 12.44140625 C-7.42351988 14.35783252 -9.14747404 16.21363568 -11 18 C-11.66 17.67 -12.32 17.34 -13 17 C-12.38125 16.443125 -11.7625 15.88625 -11.125 15.3125 C-8.90800911 13.1987404 -8.90800911 13.1987404 -8.1875 10.75 C-6.34396348 6.48075753 -3.13944514 3.38287806 0 0 Z " fill="#FCEAEA" transform="translate(68,69)"/>
<path d="M0 0 C1.07765625 0.00902344 2.1553125 0.01804687 3.265625 0.02734375 C4.08546875 0.03894531 4.9053125 0.05054687 5.75 0.0625 C5.75 0.7225 5.75 1.3825 5.75 2.0625 C4.78578125 2.16046875 3.8215625 2.2584375 2.828125 2.359375 C1.56484375 2.50890625 0.3015625 2.6584375 -1 2.8125 C-2.25296875 2.95171875 -3.5059375 3.0909375 -4.796875 3.234375 C-8.53943303 4.13191154 -9.87416354 5.11070319 -12.25 8.0625 C-12.58 7.0725 -12.91 6.0825 -13.25 5.0625 C-11.95830389 2.75104381 -11.06729453 1.35346427 -8.52734375 0.44921875 C-5.65465482 -0.03859635 -2.9125327 -0.03165796 0 0 Z " fill="#FCE0E0" transform="translate(155.25,71.9375)"/>
<path d="M0 0 C3 3 3 3 3.21484375 6.06640625 C3.07755859 7.79697266 3.07755859 7.79697266 2.9375 9.5625 C2.86402344 10.71878906 2.79054688 11.87507813 2.71484375 13.06640625 C2.36099609 14.51853516 2.36099609 14.51853516 2 16 C0.02 16.99 0.02 16.99 -2 18 C-1.34 12.06 -0.68 6.12 0 0 Z " fill="#FBE0E0" transform="translate(73,68)"/>
<path d="M0 0 C0.99 0.66 1.98 1.32 3 2 C2.72285156 2.60328125 2.44570313 3.2065625 2.16015625 3.828125 C1.61681641 5.02695313 1.61681641 5.02695313 1.0625 6.25 C0.70285156 7.03890625 0.34320313 7.8278125 -0.02734375 8.640625 C-1.05607144 10.9246861 -1.05607144 10.9246861 -1.44140625 13.171875 C-2 15 -2 15 -5 17 C-4.69343615 10.37822074 -3.25711277 5.77874846 0 0 Z " fill="#FCE4E4" transform="translate(57,68)"/>
<path d="M0 0 C0.99 0 1.98 0 3 0 C1.33333333 5 -0.33333333 10 -2 15 C-2.99 15 -3.98 15 -5 15 C-3.97137215 9.55432314 -2.75385216 4.88182883 0 0 Z " fill="#FCE3E3" transform="translate(165,69)"/>
<path d="M0 0 C0.2396943 5.63281599 -0.61470179 10.54538831 -2 16 C-2.66 16 -3.32 16 -4 16 C-4.2037037 5.81481481 -4.2037037 5.81481481 -3 1 C-1 0 -1 0 0 0 Z " fill="#F5A6A6" transform="translate(109,85)"/>
<path d="M0 0 C1.3297259 3.71065403 0.68694674 6.41674866 -0.25 10.1875 C-0.50265625 11.25355469 -0.7553125 12.31960937 -1.015625 13.41796875 C-1.34046875 14.27003906 -1.6653125 15.12210938 -2 16 C-2.99 16.33 -3.98 16.66 -5 17 C-3.82352941 3.82352941 -3.82352941 3.82352941 0 0 Z " fill="#FBDDDD" transform="translate(115,69)"/>
<path d="M0 0 C0.33 0.99 0.66 1.98 1 3 C-7.415 3.495 -7.415 3.495 -16 4 C-11.5306795 -0.4693205 -6.08485203 -0.19015163 0 0 Z " fill="#F5A8A8" transform="translate(115,41)"/>
<path d="M0 0 C0.66 0.33 1.32 0.66 2 1 C1.01 3.31 0.02 5.62 -1 8 C-1.33 7.34 -1.66 6.68 -2 6 C-2.99 6.495 -2.99 6.495 -4 7 C-6.3329866 7.04022391 -8.66706666 7.04320247 -11 7 C-11.33 6.34 -11.66 5.68 -12 5 C-10.7625 4.731875 -9.525 4.46375 -8.25 4.1875 C-4.89716221 3.36118005 -2.58904064 2.37328726 0 0 Z " fill="#FCE3E3" transform="translate(135,78)"/>
<path d="M0 0 C0.66 0.33 1.32 0.66 2 1 C2 5.62 2 10.24 2 15 C0.02 15.99 0.02 15.99 -2 17 C-1.38273804 11.32644329 -0.72054048 5.66138945 0 0 Z " fill="#FCE3E3" transform="translate(182,69)"/>
<path d="M0 0 C0.33 0.99 0.66 1.98 1 3 C-0.67976592 4.67976592 -2.38095812 6.21216573 -4.1875 7.75 C-4.80109375 8.27335937 -5.4146875 8.79671875 -6.046875 9.3359375 C-7.01367188 10.15964844 -7.01367188 10.15964844 -8 11 C-9.31285913 12.12458088 -10.62537658 13.24956081 -11.9375 14.375 C-12.95833333 15.25 -13.97916667 16.125 -15 17 C-13.67879172 14.06769807 -12.25361803 12.01335101 -9.9609375 9.765625 C-9.38085938 9.19199219 -8.80078125 8.61835937 -8.203125 8.02734375 C-7.59984375 7.44082031 -6.9965625 6.85429688 -6.375 6.25 C-5.76398437 5.64800781 -5.15296875 5.04601562 -4.5234375 4.42578125 C-3.02011376 2.94594695 -1.51065144 1.47235324 0 0 Z " fill="#FBDFDF" transform="translate(60,99)"/>
<path d="M0 0 C0.99 0.33 1.98 0.66 3 1 C2.01 5.29 1.02 9.58 0 14 C-0.99 14 -1.98 14 -3 14 C-2.40380045 9.13103697 -1.43023178 4.67209049 0 0 Z " fill="#FCE1E1" transform="translate(128,66)"/>
<path d="M0 0 C0 4.14673024 -1.75777937 5.52949719 -4.375 8.6875 C-5.18710937 9.68136719 -5.99921875 10.67523438 -6.8359375 11.69921875 C-7.55007812 12.45847656 -8.26421875 13.21773437 -9 14 C-9.66 14 -10.32 14 -11 14 C-9.42219077 10.28954753 -7.09296752 7.70093616 -4.375 4.75 C-3.55773438 3.85796875 -2.74046875 2.9659375 -1.8984375 2.046875 C-1.27195312 1.37140625 -0.64546875 0.6959375 0 0 Z " fill="#FDF5F5" transform="translate(55,108)"/>
<path d="M0 0 C-0.33 0.99 -0.66 1.98 -1 3 C-5.62 3 -10.24 3 -15 3 C-15 2.34 -15 1.68 -15 1 C-9.94997778 -0.03590199 -5.12583611 -0.10251672 0 0 Z " fill="#FCE8E8" transform="translate(116,44)"/>
<path d="M0 0 C0.99 0.33 1.98 0.66 3 1 C1.78732619 2.658023 0.55416381 4.30107431 -0.6875 5.9375 C-1.37199219 6.85402344 -2.05648437 7.77054687 -2.76171875 8.71484375 C-5.23725656 11.24222529 -6.53375469 11.71468734 -10 12 C-9 10 -9 10 -6 9 C-4.3258231 6.91302442 -4.3258231 6.91302442 -2.8125 4.4375 C-2.01779297 3.19806641 -2.01779297 3.19806641 -1.20703125 1.93359375 C-0.80871094 1.29550781 -0.41039062 0.65742187 0 0 Z " fill="#F5AAAA" transform="translate(169,74)"/>
<path d="M0 0 C0.33 0.66 0.66 1.32 1 2 C-0.07507629 3.29854721 -1.16043736 4.58858361 -2.25 5.875 C-2.85328125 6.59429687 -3.4565625 7.31359375 -4.078125 8.0546875 C-5.97087634 9.97052118 -7.53657727 10.96449045 -10 12 C-3.84965831 3.55353075 -3.84965831 3.55353075 0 0 Z " fill="#FEF7F7" transform="translate(161,111)"/>
<path d="M0 0 C1.32 0 2.64 0 4 0 C3.67 1.32 3.34 2.64 3 4 C1.68 4.33 0.36 4.66 -1 5 C-1 1 -1 1 0 0 Z " fill="#F49D9D" transform="translate(128,54)"/>
<path d="M0 0 C2.0625 0.4375 2.0625 0.4375 4 1 C4 3.31 4 5.62 4 8 C3.67 8 3.34 8 3 8 C2.67 6.35 2.34 4.7 2 3 C1.01 3.66 0.02 4.32 -1 5 C-1 1 -1 1 0 0 Z " fill="#F6AEAE" transform="translate(66,67)"/>
<path d="M0 0 C0 3 0 3 -2 6 C-4.625 6.1875 -4.625 6.1875 -7 6 C-7.33 5.34 -7.66 4.68 -8 4 C-6.865625 3.525625 -5.73125 3.05125 -4.5625 2.5625 C-1.24259834 1.36377917 -1.24259834 1.36377917 0 0 Z " fill="#FCE4E4" transform="translate(151,126)"/>
<path d="M0 0 C0.66 0 1.32 0 2 0 C1.125 5.75 1.125 5.75 0 8 C-0.66 8 -1.32 8 -2 8 C-1.125 1.125 -1.125 1.125 0 0 Z " fill="#FCE3E3" transform="translate(124,32)"/>
<path d="M0 0 C0 0.99 0 1.98 0 3 C-3 5.1875 -3 5.1875 -6 7 C-6 6.01 -6 5.02 -6 4 C-3 1.8125 -3 1.8125 0 0 Z " fill="#F5A6A6" transform="translate(85,76)"/>
<path d="M0 0 C-0.33 1.32 -0.66 2.64 -1 4 C-2.32 4.33 -3.64 4.66 -5 5 C-5.33 4.34 -5.66 3.68 -6 3 C-2.25 0 -2.25 0 0 0 Z " fill="#FCE7E7" transform="translate(134,56)"/>
</svg>
